<?xml version="1.0" encoding="utf-8" standalone="no"?>
<!DOCTYPE svg PUBLIC "-//W3C//DTD SVG 1.1//EN"
  "http://www.w3.org/Graphics/SVG/1.1/DTD/svg11.dtd">
<!-- Created with matplotlib (http://matplotlib.org/) -->
<svg height="720pt" version="1.1" viewBox="0 0 720 720" width="720pt" xmlns="http://www.w3.org/2000/svg" xmlns:xlink="http://www.w3.org/1999/xlink">
 <defs>
  <style type="text/css">
*{stroke-linecap:butt;stroke-linejoin:round;}
  </style>
 </defs>
 <g id="figure_1">
  <g id="patch_1">
   <path d="M 0 720 
L 720 720 
L 720 0 
L 0 0 
z
" style="fill:#ffffff;"/>
  </g>
  <g id="patch_2">
   <path d="M 13.32 706.68 
L 706.68 706.68 
L 706.68 13.32 
L 13.32 13.32 
z
" style="fill:#ffffff;"/>
  </g>
  <g id="pane3d_1">
   <g id="patch_3">
    <path d="M 391.508891 432.867293 
L 641.175392 540.058173 
L 651.095596 171.14884 
L 392.259272 86.641371 
" style="fill:#f2f2f2;opacity:0.5;stroke:#f2f2f2;stroke-linejoin:miter;"/>
   </g>
  </g>
  <g id="pane3d_2">
   <g id="patch_4">
    <path d="M 391.508891 432.867293 
L 100.767012 521.751227 
L 91.083394 156.68583 
L 392.259272 86.641371 
" style="fill:#e6e6e6;opacity:0.5;stroke:#e6e6e6;stroke-linejoin:miter;"/>
   </g>
  </g>
  <g id="pane3d_3">
   <g id="patch_5">
    <path d="M 391.508891 432.867293 
L 100.767012 521.751227 
L 344.01297 643.074003 
L 641.175392 540.058173 
" style="fill:#ececec;opacity:0.5;stroke:#ececec;stroke-linejoin:miter;"/>
   </g>
  </g>
  <g id="axis3d_1">
   <g id="line2d_1">
    <path d="M 641.175392 540.058173 
L 344.01297 643.074003 
" style="fill:none;stroke:#000000;stroke-linecap:square;stroke-width:0.8;"/>
   </g>
   <g id="text_1">
    <!-- Latitude -->
    <defs>
     <path d="M 9.8125 72.90625 
L 19.671875 72.90625 
L 19.671875 8.296875 
L 55.171875 8.296875 
L 55.171875 0 
L 9.8125 0 
z
" id="DejaVuSans-4c"/>
     <path d="M 34.28125 27.484375 
Q 23.390625 27.484375 19.1875 25 
Q 14.984375 22.515625 14.984375 16.5 
Q 14.984375 11.71875 18.140625 8.90625 
Q 21.296875 6.109375 26.703125 6.109375 
Q 34.1875 6.109375 38.703125 11.40625 
Q 43.21875 16.703125 43.21875 25.484375 
L 43.21875 27.484375 
z
M 52.203125 31.203125 
L 52.203125 0 
L 43.21875 0 
L 43.21875 8.296875 
Q 40.140625 3.328125 35.546875 0.953125 
Q 30.953125 -1.421875 24.3125 -1.421875 
Q 15.921875 -1.421875 10.953125 3.296875 
Q 6 8.015625 6 15.921875 
Q 6 25.140625 12.171875 29.828125 
Q 18.359375 34.515625 30.609375 34.515625 
L 43.21875 34.515625 
L 43.21875 35.40625 
Q 43.21875 41.609375 39.140625 45 
Q 35.0625 48.390625 27.6875 48.390625 
Q 23 48.390625 18.546875 47.265625 
Q 14.109375 46.140625 10.015625 43.890625 
L 10.015625 52.203125 
Q 14.9375 54.109375 19.578125 55.046875 
Q 24.21875 56 28.609375 56 
Q 40.484375 56 46.34375 49.84375 
Q 52.203125 43.703125 52.203125 31.203125 
z
" id="DejaVuSans-61"/>
     <path d="M 18.3125 70.21875 
L 18.3125 54.6875 
L 36.8125 54.6875 
L 36.8125 47.703125 
L 18.3125 47.703125 
L 18.3125 18.015625 
Q 18.3125 11.328125 20.140625 9.421875 
Q 21.96875 7.515625 27.59375 7.515625 
L 36.8125 7.515625 
L 36.8125 0 
L 27.59375 0 
Q 17.1875 0 13.234375 3.875 
Q 9.28125 7.765625 9.28125 18.015625 
L 9.28125 47.703125 
L 2.6875 47.703125 
L 2.6875 54.6875 
L 9.28125 54.6875 
L 9.28125 70.21875 
z
" id="DejaVuSans-74"/>
     <path d="M 9.421875 54.6875 
L 18.40625 54.6875 
L 18.40625 0 
L 9.421875 0 
z
M 9.421875 75.984375 
L 18.40625 75.984375 
L 18.40625 64.59375 
L 9.421875 64.59375 
z
" id="DejaVuSans-69"/>
     <path d="M 8.5 21.578125 
L 8.5 54.6875 
L 17.484375 54.6875 
L 17.484375 21.921875 
Q 17.484375 14.15625 20.5 10.265625 
Q 23.53125 6.390625 29.59375 6.390625 
Q 36.859375 6.390625 41.078125 11.03125 
Q 45.3125 15.671875 45.3125 23.6875 
L 45.3125 54.6875 
L 54.296875 54.6875 
L 54.296875 0 
L 45.3125 0 
L 45.3125 8.40625 
Q 42.046875 3.421875 37.71875 1 
Q 33.40625 -1.421875 27.6875 -1.421875 
Q 18.265625 -1.421875 13.375 4.4375 
Q 8.5 10.296875 8.5 21.578125 
z
M 31.109375 56 
z
" id="DejaVuSans-75"/>
     <path d="M 45.40625 46.390625 
L 45.40625 75.984375 
L 54.390625 75.984375 
L 54.390625 0 
L 45.40625 0 
L 45.40625 8.203125 
Q 42.578125 3.328125 38.25 0.953125 
Q 33.9375 -1.421875 27.875 -1.421875 
Q 17.96875 -1.421875 11.734375 6.484375 
Q 5.515625 14.40625 5.515625 27.296875 
Q 5.515625 40.1875 11.734375 48.09375 
Q 17.96875 56 27.875 56 
Q 33.9375 56 38.25 53.625 
Q 42.578125 51.265625 45.40625 46.390625 
z
M 14.796875 27.296875 
Q 14.796875 17.390625 18.875 11.75 
Q 22.953125 6.109375 30.078125 6.109375 
Q 37.203125 6.109375 41.296875 11.75 
Q 45.40625 17.390625 45.40625 27.296875 
Q 45.40625 37.203125 41.296875 42.84375 
Q 37.203125 48.484375 30.078125 48.484375 
Q 22.953125 48.484375 18.875 42.84375 
Q 14.796875 37.203125 14.796875 27.296875 
z
" id="DejaVuSans-64"/>
     <path d="M 56.203125 29.59375 
L 56.203125 25.203125 
L 14.890625 25.203125 
Q 15.484375 15.921875 20.484375 11.0625 
Q 25.484375 6.203125 34.421875 6.203125 
Q 39.59375 6.203125 44.453125 7.46875 
Q 49.3125 8.734375 54.109375 11.28125 
L 54.109375 2.78125 
Q 49.265625 0.734375 44.1875 -0.34375 
Q 39.109375 -1.421875 33.890625 -1.421875 
Q 20.796875 -1.421875 13.15625 6.1875 
Q 5.515625 13.8125 5.515625 26.8125 
Q 5.515625 40.234375 12.765625 48.109375 
Q 20.015625 56 32.328125 56 
Q 43.359375 56 49.78125 48.890625 
Q 56.203125 41.796875 56.203125 29.59375 
z
M 47.21875 32.234375 
Q 47.125 39.59375 43.09375 43.984375 
Q 39.0625 48.390625 32.421875 48.390625 
Q 24.90625 48.390625 20.390625 44.140625 
Q 15.875 39.890625 15.1875 32.171875 
z
" id="DejaVuSans-65"/>
    </defs>
    <g transform="translate(496.949887 633.150186)rotate(-19.119644)scale(0.1 -0.1)">
     <use xlink:href="#DejaVuSans-4c"/>
     <use x="55.712891" xlink:href="#DejaVuSans-61"/>
     <use x="116.992188" xlink:href="#DejaVuSans-74"/>
     <use x="156.201172" xlink:href="#DejaVuSans-69"/>
     <use x="183.984375" xlink:href="#DejaVuSans-74"/>
     <use x="223.193359" xlink:href="#DejaVuSans-75"/>
     <use x="286.572266" xlink:href="#DejaVuSans-64"/>
     <use x="350.048828" xlink:href="#DejaVuSans-65"/>
    </g>
   </g>
   <g id="text_2">
    <!-- +4.864e6 -->
    <defs>
     <path d="M 46 62.703125 
L 46 35.5 
L 73.1875 35.5 
L 73.1875 27.203125 
L 46 27.203125 
L 46 0 
L 37.796875 0 
L 37.796875 27.203125 
L 10.59375 27.203125 
L 10.59375 35.5 
L 37.796875 35.5 
L 37.796875 62.703125 
z
" id="DejaVuSans-2b"/>
     <path d="M 37.796875 64.3125 
L 12.890625 25.390625 
L 37.796875 25.390625 
z
M 35.203125 72.90625 
L 47.609375 72.90625 
L 47.609375 25.390625 
L 58.015625 25.390625 
L 58.015625 17.1875 
L 47.609375 17.1875 
L 47.609375 0 
L 37.796875 0 
L 37.796875 17.1875 
L 4.890625 17.1875 
L 4.890625 26.703125 
z
" id="DejaVuSans-34"/>
     <path d="M 10.6875 12.40625 
L 21 12.40625 
L 21 0 
L 10.6875 0 
z
" id="DejaVuSans-2e"/>
     <path d="M 31.78125 34.625 
Q 24.75 34.625 20.71875 30.859375 
Q 16.703125 27.09375 16.703125 20.515625 
Q 16.703125 13.921875 20.71875 10.15625 
Q 24.75 6.390625 31.78125 6.390625 
Q 38.8125 6.390625 42.859375 10.171875 
Q 46.921875 13.96875 46.921875 20.515625 
Q 46.921875 27.09375 42.890625 30.859375 
Q 38.875 34.625 31.78125 34.625 
z
M 21.921875 38.8125 
Q 15.578125 40.375 12.03125 44.71875 
Q 8.5 49.078125 8.5 55.328125 
Q 8.5 64.0625 14.71875 69.140625 
Q 20.953125 74.21875 31.78125 74.21875 
Q 42.671875 74.21875 48.875 69.140625 
Q 55.078125 64.0625 55.078125 55.328125 
Q 55.078125 49.078125 51.53125 44.71875 
Q 48 40.375 41.703125 38.8125 
Q 48.828125 37.15625 52.796875 32.3125 
Q 56.78125 27.484375 56.78125 20.515625 
Q 56.78125 9.90625 50.3125 4.234375 
Q 43.84375 -1.421875 31.78125 -1.421875 
Q 19.734375 -1.421875 13.25 4.234375 
Q 6.78125 9.90625 6.78125 20.515625 
Q 6.78125 27.484375 10.78125 32.3125 
Q 14.796875 37.15625 21.921875 38.8125 
z
M 18.3125 54.390625 
Q 18.3125 48.734375 21.84375 45.5625 
Q 25.390625 42.390625 31.78125 42.390625 
Q 38.140625 42.390625 41.71875 45.5625 
Q 45.3125 48.734375 45.3125 54.390625 
Q 45.3125 60.0625 41.71875 63.234375 
Q 38.140625 66.40625 31.78125 66.40625 
Q 25.390625 66.40625 21.84375 63.234375 
Q 18.3125 60.0625 18.3125 54.390625 
z
" id="DejaVuSans-38"/>
     <path d="M 33.015625 40.375 
Q 26.375 40.375 22.484375 35.828125 
Q 18.609375 31.296875 18.609375 23.390625 
Q 18.609375 15.53125 22.484375 10.953125 
Q 26.375 6.390625 33.015625 6.390625 
Q 39.65625 6.390625 43.53125 10.953125 
Q 47.40625 15.53125 47.40625 23.390625 
Q 47.40625 31.296875 43.53125 35.828125 
Q 39.65625 40.375 33.015625 40.375 
z
M 52.59375 71.296875 
L 52.59375 62.3125 
Q 48.875 64.0625 45.09375 64.984375 
Q 41.3125 65.921875 37.59375 65.921875 
Q 27.828125 65.921875 22.671875 59.328125 
Q 17.53125 52.734375 16.796875 39.40625 
Q 19.671875 43.65625 24.015625 45.921875 
Q 28.375 48.1875 33.59375 48.1875 
Q 44.578125 48.1875 50.953125 41.515625 
Q 57.328125 34.859375 57.328125 23.390625 
Q 57.328125 12.15625 50.6875 5.359375 
Q 44.046875 -1.421875 33.015625 -1.421875 
Q 20.359375 -1.421875 13.671875 8.265625 
Q 6.984375 17.96875 6.984375 36.375 
Q 6.984375 53.65625 15.1875 63.9375 
Q 23.390625 74.21875 37.203125 74.21875 
Q 40.921875 74.21875 44.703125 73.484375 
Q 48.484375 72.75 52.59375 71.296875 
z
" id="DejaVuSans-36"/>
    </defs>
    <g transform="translate(631.593374 584.053303)rotate(-19.119644)scale(0.06 -0.06)">
     <use xlink:href="#DejaVuSans-2b"/>
     <use x="83.789062" xlink:href="#DejaVuSans-34"/>
     <use x="147.412109" xlink:href="#DejaVuSans-2e"/>
     <use x="179.199219" xlink:href="#DejaVuSans-38"/>
     <use x="242.822266" xlink:href="#DejaVuSans-36"/>
     <use x="306.445312" xlink:href="#DejaVuSans-34"/>
     <use x="370.068359" xlink:href="#DejaVuSans-65"/>
     <use x="431.591797" xlink:href="#DejaVuSans-36"/>
    </g>
   </g>
   <g id="Line3DCollection_1">
    <path d="M 583.754818 559.96388 
L 335.121771 450.105639 
L 333.946666 100.203131 
" style="fill:none;stroke:#000000;stroke-dasharray:0.5,0.825;stroke-dashoffset:0;stroke-width:0.5;"/>
    <path d="M 522.010753 581.36839 
L 274.600013 468.608003 
L 271.30577 114.771521 
" style="fill:none;stroke:#000000;stroke-dasharray:0.5,0.825;stroke-dashoffset:0;stroke-width:0.5;"/>
    <path d="M 458.563649 603.363284 
L 212.528466 487.584159 
L 207.004324 129.726105 
" style="fill:none;stroke:#000000;stroke-dasharray:0.5,0.825;stroke-dashoffset:0;stroke-width:0.5;"/>
    <path d="M 393.342059 625.973331 
L 148.846829 507.052543 
L 140.97541 145.082446 
" style="fill:none;stroke:#000000;stroke-dasharray:0.5,0.825;stroke-dashoffset:0;stroke-width:0.5;"/>
   </g>
   <g id="xtick_1">
    <g id="line2d_2">
     <path d="M 581.617737 559.019613 
L 588.036689 561.85582 
" style="fill:none;stroke:#000000;stroke-linecap:square;stroke-width:0.8;"/>
    </g>
    <g id="text_3">
     <!-- 800 -->
     <defs>
      <path d="M 31.78125 66.40625 
Q 24.171875 66.40625 20.328125 58.90625 
Q 16.5 51.421875 16.5 36.375 
Q 16.5 21.390625 20.328125 13.890625 
Q 24.171875 6.390625 31.78125 6.390625 
Q 39.453125 6.390625 43.28125 13.890625 
Q 47.125 21.390625 47.125 36.375 
Q 47.125 51.421875 43.28125 58.90625 
Q 39.453125 66.40625 31.78125 66.40625 
z
M 31.78125 74.21875 
Q 44.046875 74.21875 50.515625 64.515625 
Q 56.984375 54.828125 56.984375 36.375 
Q 56.984375 17.96875 50.515625 8.265625 
Q 44.046875 -1.421875 31.78125 -1.421875 
Q 19.53125 -1.421875 13.0625 8.265625 
Q 6.59375 17.96875 6.59375 36.375 
Q 6.59375 54.828125 13.0625 64.515625 
Q 19.53125 74.21875 31.78125 74.21875 
z
" id="DejaVuSans-30"/>
     </defs>
     <g transform="translate(586.307486 579.759921)scale(0.06 -0.06)">
      <use xlink:href="#DejaVuSans-38"/>
      <use x="63.623047" xlink:href="#DejaVuSans-30"/>
      <use x="127.246094" xlink:href="#DejaVuSans-30"/>
     </g>
    </g>
   </g>
   <g id="xtick_2">
    <g id="line2d_3">
     <path d="M 519.882175 580.398265 
L 526.275691 583.312186 
" style="fill:none;stroke:#000000;stroke-linecap:square;stroke-width:0.8;"/>
    </g>
    <g id="text_4">
     <!-- 850 -->
     <defs>
      <path d="M 10.796875 72.90625 
L 49.515625 72.90625 
L 49.515625 64.59375 
L 19.828125 64.59375 
L 19.828125 46.734375 
Q 21.96875 47.46875 24.109375 47.828125 
Q 26.265625 48.1875 28.421875 48.1875 
Q 40.625 48.1875 47.75 41.5 
Q 54.890625 34.8125 54.890625 23.390625 
Q 54.890625 11.625 47.5625 5.09375 
Q 40.234375 -1.421875 26.90625 -1.421875 
Q 22.3125 -1.421875 17.546875 -0.640625 
Q 12.796875 0.140625 7.71875 1.703125 
L 7.71875 11.625 
Q 12.109375 9.234375 16.796875 8.0625 
Q 21.484375 6.890625 26.703125 6.890625 
Q 35.15625 6.890625 40.078125 11.328125 
Q 45.015625 15.765625 45.015625 23.390625 
Q 45.015625 31 40.078125 35.4375 
Q 35.15625 39.890625 26.703125 39.890625 
Q 22.75 39.890625 18.8125 39.015625 
Q 14.890625 38.140625 10.796875 36.28125 
z
" id="DejaVuSans-35"/>
     </defs>
     <g transform="translate(524.597569 601.399225)scale(0.06 -0.06)">
      <use xlink:href="#DejaVuSans-38"/>
      <use x="63.623047" xlink:href="#DejaVuSans-35"/>
      <use x="127.246094" xlink:href="#DejaVuSans-30"/>
     </g>
    </g>
   </g>
   <g id="xtick_3">
    <g id="line2d_4">
     <path d="M 456.444859 602.366226 
L 462.809081 605.361098 
" style="fill:none;stroke:#000000;stroke-linecap:square;stroke-width:0.8;"/>
    </g>
    <g id="text_5">
     <!-- 900 -->
     <defs>
      <path d="M 10.984375 1.515625 
L 10.984375 10.5 
Q 14.703125 8.734375 18.5 7.8125 
Q 22.3125 6.890625 25.984375 6.890625 
Q 35.75 6.890625 40.890625 13.453125 
Q 46.046875 20.015625 46.78125 33.40625 
Q 43.953125 29.203125 39.59375 26.953125 
Q 35.25 24.703125 29.984375 24.703125 
Q 19.046875 24.703125 12.671875 31.3125 
Q 6.296875 37.9375 6.296875 49.421875 
Q 6.296875 60.640625 12.9375 67.421875 
Q 19.578125 74.21875 30.609375 74.21875 
Q 43.265625 74.21875 49.921875 64.515625 
Q 56.59375 54.828125 56.59375 36.375 
Q 56.59375 19.140625 48.40625 8.859375 
Q 40.234375 -1.421875 26.421875 -1.421875 
Q 22.703125 -1.421875 18.890625 -0.6875 
Q 15.09375 0.046875 10.984375 1.515625 
z
M 30.609375 32.421875 
Q 37.25 32.421875 41.125 36.953125 
Q 45.015625 41.5 45.015625 49.421875 
Q 45.015625 57.28125 41.125 61.84375 
Q 37.25 66.40625 30.609375 66.40625 
Q 23.96875 66.40625 20.09375 61.84375 
Q 16.21875 57.28125 16.21875 49.421875 
Q 16.21875 41.5 20.09375 36.953125 
Q 23.96875 32.421875 30.609375 32.421875 
z
" id="DejaVuSans-39"/>
     </defs>
     <g transform="translate(461.183357 623.636161)scale(0.06 -0.06)">
      <use xlink:href="#DejaVuSans-39"/>
      <use x="63.623047" xlink:href="#DejaVuSans-30"/>
      <use x="127.246094" xlink:href="#DejaVuSans-30"/>
     </g>
    </g>
   </g>
   <g id="xtick_4">
    <g id="line2d_5">
     <path d="M 391.234441 624.9482 
L 397.565216 628.027445 
" style="fill:none;stroke:#000000;stroke-linecap:square;stroke-width:0.8;"/>
    </g>
    <g id="text_6">
     <!-- 950 -->
     <g transform="translate(395.993259 646.495832)scale(0.06 -0.06)">
      <use xlink:href="#DejaVuSans-39"/>
      <use x="63.623047" xlink:href="#DejaVuSans-35"/>
      <use x="127.246094" xlink:href="#DejaVuSans-30"/>
     </g>
    </g>
   </g>
  </g>
  <g id="axis3d_2">
   <g id="line2d_6">
    <path d="M 100.767012 521.751227 
L 344.01297 643.074003 
" style="fill:none;stroke:#000000;stroke-linecap:square;stroke-width:0.8;"/>
   </g>
   <g id="text_7">
    <!-- Longitude -->
    <defs>
     <path d="M 30.609375 48.390625 
Q 23.390625 48.390625 19.1875 42.75 
Q 14.984375 37.109375 14.984375 27.296875 
Q 14.984375 17.484375 19.15625 11.84375 
Q 23.34375 6.203125 30.609375 6.203125 
Q 37.796875 6.203125 41.984375 11.859375 
Q 46.1875 17.53125 46.1875 27.296875 
Q 46.1875 37.015625 41.984375 42.703125 
Q 37.796875 48.390625 30.609375 48.390625 
z
M 30.609375 56 
Q 42.328125 56 49.015625 48.375 
Q 55.71875 40.765625 55.71875 27.296875 
Q 55.71875 13.875 49.015625 6.21875 
Q 42.328125 -1.421875 30.609375 -1.421875 
Q 18.84375 -1.421875 12.171875 6.21875 
Q 5.515625 13.875 5.515625 27.296875 
Q 5.515625 40.765625 12.171875 48.375 
Q 18.84375 56 30.609375 56 
z
" id="DejaVuSans-6f"/>
     <path d="M 54.890625 33.015625 
L 54.890625 0 
L 45.90625 0 
L 45.90625 32.71875 
Q 45.90625 40.484375 42.875 44.328125 
Q 39.84375 48.1875 33.796875 48.1875 
Q 26.515625 48.1875 22.3125 43.546875 
Q 18.109375 38.921875 18.109375 30.90625 
L 18.109375 0 
L 9.078125 0 
L 9.078125 54.6875 
L 18.109375 54.6875 
L 18.109375 46.1875 
Q 21.34375 51.125 25.703125 53.5625 
Q 30.078125 56 35.796875 56 
Q 45.21875 56 50.046875 50.171875 
Q 54.890625 44.34375 54.890625 33.015625 
z
" id="DejaVuSans-6e"/>
     <path d="M 45.40625 27.984375 
Q 45.40625 37.75 41.375 43.109375 
Q 37.359375 48.484375 30.078125 48.484375 
Q 22.859375 48.484375 18.828125 43.109375 
Q 14.796875 37.75 14.796875 27.984375 
Q 14.796875 18.265625 18.828125 12.890625 
Q 22.859375 7.515625 30.078125 7.515625 
Q 37.359375 7.515625 41.375 12.890625 
Q 45.40625 18.265625 45.40625 27.984375 
z
M 54.390625 6.78125 
Q 54.390625 -7.171875 48.1875 -13.984375 
Q 42 -20.796875 29.203125 -20.796875 
Q 24.46875 -20.796875 20.265625 -20.09375 
Q 16.0625 -19.390625 12.109375 -17.921875 
L 12.109375 -9.1875 
Q 16.0625 -11.328125 19.921875 -12.34375 
Q 23.78125 -13.375 27.78125 -13.375 
Q 36.625 -13.375 41.015625 -8.765625 
Q 45.40625 -4.15625 45.40625 5.171875 
L 45.40625 9.625 
Q 42.625 4.78125 38.28125 2.390625 
Q 33.9375 0 27.875 0 
Q 17.828125 0 11.671875 7.65625 
Q 5.515625 15.328125 5.515625 27.984375 
Q 5.515625 40.671875 11.671875 48.328125 
Q 17.828125 56 27.875 56 
Q 33.9375 56 38.28125 53.609375 
Q 42.625 51.21875 45.40625 46.390625 
L 45.40625 54.6875 
L 54.390625 54.6875 
z
" id="DejaVuSans-67"/>
    </defs>
    <g transform="translate(172.881289 603.711233)rotate(-333.491546)scale(0.1 -0.1)">
     <use xlink:href="#DejaVuSans-4c"/>
     <use x="55.697266" xlink:href="#DejaVuSans-6f"/>
     <use x="116.878906" xlink:href="#DejaVuSans-6e"/>
     <use x="180.257812" xlink:href="#DejaVuSans-67"/>
     <use x="243.734375" xlink:href="#DejaVuSans-69"/>
     <use x="271.517578" xlink:href="#DejaVuSans-74"/>
     <use x="310.726562" xlink:href="#DejaVuSans-75"/>
     <use x="374.105469" xlink:href="#DejaVuSans-64"/>
     <use x="437.582031" xlink:href="#DejaVuSans-65"/>
    </g>
   </g>
   <g id="Line3DCollection_2">
    <path d="M 420.379262 95.822266 
L 418.693537 444.538648 
L 127.145021 534.907677 
" style="fill:none;stroke:#000000;stroke-dasharray:0.5,0.825;stroke-dashoffset:0;stroke-width:0.5;"/>
    <path d="M 457.278513 107.869502 
L 454.342873 459.8442 
L 161.776245 552.180549 
" style="fill:none;stroke:#000000;stroke-dasharray:0.5,0.825;stroke-dashoffset:0;stroke-width:0.5;"/>
    <path d="M 494.988022 120.181279 
L 490.748602 475.474499 
L 197.188829 569.843136 
" style="fill:none;stroke:#000000;stroke-dasharray:0.5,0.825;stroke-dashoffset:0;stroke-width:0.5;"/>
    <path d="M 533.534772 132.766408 
L 527.935054 491.439991 
L 233.40952 587.90878 
" style="fill:none;stroke:#000000;stroke-dasharray:0.5,0.825;stroke-dashoffset:0;stroke-width:0.5;"/>
    <path d="M 572.946961 145.634093 
L 565.927617 507.751575 
L 270.466297 606.391435 
" style="fill:none;stroke:#000000;stroke-dasharray:0.5,0.825;stroke-dashoffset:0;stroke-width:0.5;"/>
    <path d="M 613.254065 158.793959 
L 604.752788 524.420629 
L 308.388449 625.305709 
" style="fill:none;stroke:#000000;stroke-dasharray:0.5,0.825;stroke-dashoffset:0;stroke-width:0.5;"/>
   </g>
   <g id="xtick_5">
    <g id="line2d_7">
     <path d="M 129.620744 534.140297 
L 122.186203 536.444723 
" style="fill:none;stroke:#000000;stroke-linecap:square;stroke-width:0.8;"/>
    </g>
    <g id="text_8">
     <!-- −7600 -->
     <defs>
      <path d="M 10.59375 35.5 
L 73.1875 35.5 
L 73.1875 27.203125 
L 10.59375 27.203125 
z
" id="DejaVuSans-2212"/>
      <path d="M 8.203125 72.90625 
L 55.078125 72.90625 
L 55.078125 68.703125 
L 28.609375 0 
L 18.3125 0 
L 43.21875 64.59375 
L 8.203125 64.59375 
z
" id="DejaVuSans-37"/>
     </defs>
     <g transform="translate(107.398824 553.837606)scale(0.06 -0.06)">
      <use xlink:href="#DejaVuSans-2212"/>
      <use x="83.789062" xlink:href="#DejaVuSans-37"/>
      <use x="147.412109" xlink:href="#DejaVuSans-36"/>
      <use x="211.035156" xlink:href="#DejaVuSans-30"/>
      <use x="274.658203" xlink:href="#DejaVuSans-30"/>
     </g>
    </g>
   </g>
   <g id="xtick_6">
    <g id="line2d_8">
     <path d="M 164.262216 551.395956 
L 156.796815 553.752096 
" style="fill:none;stroke:#000000;stroke-linecap:square;stroke-width:0.8;"/>
    </g>
    <g id="text_9">
     <!-- −7550 -->
     <g transform="translate(141.9529 571.285894)scale(0.06 -0.06)">
      <use xlink:href="#DejaVuSans-2212"/>
      <use x="83.789062" xlink:href="#DejaVuSans-37"/>
      <use x="147.412109" xlink:href="#DejaVuSans-35"/>
      <use x="211.035156" xlink:href="#DejaVuSans-35"/>
      <use x="274.658203" xlink:href="#DejaVuSans-30"/>
     </g>
    </g>
   </g>
   <g id="xtick_7">
    <g id="line2d_9">
     <path d="M 199.684885 569.040746 
L 192.189116 571.45036 
" style="fill:none;stroke:#000000;stroke-linecap:square;stroke-width:0.8;"/>
    </g>
    <g id="text_10">
     <!-- −7500 -->
     <g transform="translate(177.28728 589.128201)scale(0.06 -0.06)">
      <use xlink:href="#DejaVuSans-2212"/>
      <use x="83.789062" xlink:href="#DejaVuSans-37"/>
      <use x="147.412109" xlink:href="#DejaVuSans-35"/>
      <use x="211.035156" xlink:href="#DejaVuSans-30"/>
      <use x="274.658203" xlink:href="#DejaVuSans-30"/>
     </g>
    </g>
   </g>
   <g id="xtick_8">
    <g id="line2d_10">
     <path d="M 235.915476 587.08798 
L 228.389889 589.552908 
" style="fill:none;stroke:#000000;stroke-linecap:square;stroke-width:0.8;"/>
    </g>
    <g id="text_11">
     <!-- −7450 -->
     <g transform="translate(213.428695 607.378026)scale(0.06 -0.06)">
      <use xlink:href="#DejaVuSans-2212"/>
      <use x="83.789062" xlink:href="#DejaVuSans-37"/>
      <use x="147.412109" xlink:href="#DejaVuSans-34"/>
      <use x="211.035156" xlink:href="#DejaVuSans-35"/>
      <use x="274.658203" xlink:href="#DejaVuSans-30"/>
     </g>
    </g>
   </g>
   <g id="xtick_9">
    <g id="line2d_11">
     <path d="M 272.981949 605.551584 
L 265.427157 608.073753 
" style="fill:none;stroke:#000000;stroke-linecap:square;stroke-width:0.8;"/>
    </g>
    <g id="text_12">
     <!-- −7400 -->
     <g transform="translate(250.405116 626.049491)scale(0.06 -0.06)">
      <use xlink:href="#DejaVuSans-2212"/>
      <use x="83.789062" xlink:href="#DejaVuSans-37"/>
      <use x="147.412109" xlink:href="#DejaVuSans-34"/>
      <use x="211.035156" xlink:href="#DejaVuSans-30"/>
      <use x="274.658203" xlink:href="#DejaVuSans-30"/>
     </g>
    </g>
   </g>
   <g id="xtick_10">
    <g id="line2d_12">
     <path d="M 310.913568 624.446136 
L 303.330253 627.027564 
" style="fill:none;stroke:#000000;stroke-linecap:square;stroke-width:0.8;"/>
    </g>
    <g id="text_13">
     <!-- −7350 -->
     <defs>
      <path d="M 40.578125 39.3125 
Q 47.65625 37.796875 51.625 33 
Q 55.609375 28.21875 55.609375 21.1875 
Q 55.609375 10.40625 48.1875 4.484375 
Q 40.765625 -1.421875 27.09375 -1.421875 
Q 22.515625 -1.421875 17.65625 -0.515625 
Q 12.796875 0.390625 7.625 2.203125 
L 7.625 11.71875 
Q 11.71875 9.328125 16.59375 8.109375 
Q 21.484375 6.890625 26.8125 6.890625 
Q 36.078125 6.890625 40.9375 10.546875 
Q 45.796875 14.203125 45.796875 21.1875 
Q 45.796875 27.640625 41.28125 31.265625 
Q 36.765625 34.90625 28.71875 34.90625 
L 20.21875 34.90625 
L 20.21875 43.015625 
L 29.109375 43.015625 
Q 36.375 43.015625 40.234375 45.921875 
Q 44.09375 48.828125 44.09375 54.296875 
Q 44.09375 59.90625 40.109375 62.90625 
Q 36.140625 65.921875 28.71875 65.921875 
Q 24.65625 65.921875 20.015625 65.03125 
Q 15.375 64.15625 9.8125 62.3125 
L 9.8125 71.09375 
Q 15.4375 72.65625 20.34375 73.4375 
Q 25.25 74.21875 29.59375 74.21875 
Q 40.828125 74.21875 47.359375 69.109375 
Q 53.90625 64.015625 53.90625 55.328125 
Q 53.90625 49.265625 50.4375 45.09375 
Q 46.96875 40.921875 40.578125 39.3125 
z
" id="DejaVuSans-33"/>
     </defs>
     <g transform="translate(288.245817 645.15738)scale(0.06 -0.06)">
      <use xlink:href="#DejaVuSans-2212"/>
      <use x="83.789062" xlink:href="#DejaVuSans-37"/>
      <use x="147.412109" xlink:href="#DejaVuSans-33"/>
      <use x="211.035156" xlink:href="#DejaVuSans-35"/>
      <use x="274.658203" xlink:href="#DejaVuSans-30"/>
     </g>
    </g>
   </g>
  </g>
  <g id="axis3d_3">
   <g id="line2d_13">
    <path d="M 100.767012 521.751227 
L 91.083394 156.68583 
" style="fill:none;stroke:#000000;stroke-linecap:square;stroke-width:0.8;"/>
   </g>
   <g id="text_14">
    <!-- Floor -->
    <defs>
     <path d="M 9.8125 72.90625 
L 51.703125 72.90625 
L 51.703125 64.59375 
L 19.671875 64.59375 
L 19.671875 43.109375 
L 48.578125 43.109375 
L 48.578125 34.8125 
L 19.671875 34.8125 
L 19.671875 0 
L 9.8125 0 
z
" id="DejaVuSans-46"/>
     <path d="M 9.421875 75.984375 
L 18.40625 75.984375 
L 18.40625 0 
L 9.421875 0 
z
" id="DejaVuSans-6c"/>
     <path d="M 41.109375 46.296875 
Q 39.59375 47.171875 37.8125 47.578125 
Q 36.03125 48 33.890625 48 
Q 26.265625 48 22.1875 43.046875 
Q 18.109375 38.09375 18.109375 28.8125 
L 18.109375 0 
L 9.078125 0 
L 9.078125 54.6875 
L 18.109375 54.6875 
L 18.109375 46.1875 
Q 20.953125 51.171875 25.484375 53.578125 
Q 30.03125 56 36.53125 56 
Q 37.453125 56 38.578125 55.875 
Q 39.703125 55.765625 41.0625 55.515625 
z
" id="DejaVuSans-72"/>
    </defs>
    <g transform="translate(55.332626 328.964263)rotate(-271.519455)scale(0.1 -0.1)">
     <use xlink:href="#DejaVuSans-46"/>
     <use x="57.519531" xlink:href="#DejaVuSans-6c"/>
     <use x="85.302734" xlink:href="#DejaVuSans-6f"/>
     <use x="146.484375" xlink:href="#DejaVuSans-6f"/>
     <use x="207.666016" xlink:href="#DejaVuSans-72"/>
    </g>
   </g>
   <g id="Line3DCollection_3">
    <path d="M 100.579949 514.699077 
L 391.523416 426.165385 
L 641.366944 532.934772 
" style="fill:none;stroke:#000000;stroke-dasharray:0.5,0.825;stroke-dashoffset:0;stroke-width:0.5;"/>
    <path d="M 98.314695 429.300653 
L 391.699216 345.05111 
L 643.686816 446.664141 
" style="fill:none;stroke:#000000;stroke-dasharray:0.5,0.825;stroke-dashoffset:0;stroke-width:0.5;"/>
    <path d="M 96.010936 342.450586 
L 391.877829 262.639174 
L 646.046601 358.909241 
" style="fill:none;stroke:#000000;stroke-dasharray:0.5,0.825;stroke-dashoffset:0;stroke-width:0.5;"/>
    <path d="M 93.66768 254.111547 
L 392.059322 178.898187 
L 648.447337 269.631435 
" style="fill:none;stroke:#000000;stroke-dasharray:0.5,0.825;stroke-dashoffset:0;stroke-width:0.5;"/>
    <path d="M 91.283904 164.244913 
L 392.243766 93.795738 
L 650.890101 178.790733 
" style="fill:none;stroke:#000000;stroke-dasharray:0.5,0.825;stroke-dashoffset:0;stroke-width:0.5;"/>
   </g>
   <g id="xtick_11">
    <g id="line2d_14">
     <path d="M 103.049418 513.947622 
L 95.633715 516.20421 
" style="fill:none;stroke:#000000;stroke-linecap:square;stroke-width:0.8;"/>
    </g>
    <g id="text_15">
     <!-- 0 -->
     <g transform="translate(81.659341 518.684489)scale(0.06 -0.06)">
      <use xlink:href="#DejaVuSans-30"/>
     </g>
    </g>
   </g>
   <g id="xtick_12">
    <g id="line2d_15">
     <path d="M 100.806089 428.585214 
L 93.324485 430.733663 
" style="fill:none;stroke:#000000;stroke-linecap:square;stroke-width:0.8;"/>
    </g>
    <g id="text_16">
     <!-- 1 -->
     <defs>
      <path d="M 12.40625 8.296875 
L 28.515625 8.296875 
L 28.515625 63.921875 
L 10.984375 60.40625 
L 10.984375 69.390625 
L 28.421875 72.90625 
L 38.28125 72.90625 
L 38.28125 8.296875 
L 54.390625 8.296875 
L 54.390625 0 
L 12.40625 0 
z
" id="DejaVuSans-31"/>
     </defs>
     <g transform="translate(79.251629 433.313559)scale(0.06 -0.06)">
      <use xlink:href="#DejaVuSans-31"/>
     </g>
    </g>
   </g>
   <g id="xtick_13">
    <g id="line2d_16">
     <path d="M 98.524645 341.772502 
L 90.975962 343.808793 
" style="fill:none;stroke:#000000;stroke-linecap:square;stroke-width:0.8;"/>
    </g>
    <g id="text_17">
     <!-- 2 -->
     <defs>
      <path d="M 19.1875 8.296875 
L 53.609375 8.296875 
L 53.609375 0 
L 7.328125 0 
L 7.328125 8.296875 
Q 12.9375 14.109375 22.625 23.890625 
Q 32.328125 33.6875 34.8125 36.53125 
Q 39.546875 41.84375 41.421875 45.53125 
Q 43.3125 49.21875 43.3125 52.78125 
Q 43.3125 58.59375 39.234375 62.25 
Q 35.15625 65.921875 28.609375 65.921875 
Q 23.96875 65.921875 18.8125 64.3125 
Q 13.671875 62.703125 7.8125 59.421875 
L 7.8125 69.390625 
Q 13.765625 71.78125 18.9375 73 
Q 24.125 74.21875 28.421875 74.21875 
Q 39.75 74.21875 46.484375 68.546875 
Q 53.21875 62.890625 53.21875 53.421875 
Q 53.21875 48.921875 51.53125 44.890625 
Q 49.859375 40.875 45.40625 35.40625 
Q 44.1875 33.984375 37.640625 27.21875 
Q 31.109375 20.453125 19.1875 8.296875 
z
" id="DejaVuSans-32"/>
     </defs>
     <g transform="translate(76.803006 346.492008)scale(0.06 -0.06)">
      <use xlink:href="#DejaVuSans-32"/>
     </g>
    </g>
   </g>
   <g id="xtick_14">
    <g id="line2d_17">
     <path d="M 96.204108 253.472208 
L 88.587136 255.392162 
" style="fill:none;stroke:#000000;stroke-linecap:square;stroke-width:0.8;"/>
    </g>
    <g id="text_18">
     <!-- 3 -->
     <g transform="translate(74.31242 258.182546)scale(0.06 -0.06)">
      <use xlink:href="#DejaVuSans-33"/>
     </g>
    </g>
   </g>
   <g id="xtick_15">
    <g id="line2d_18">
     <path d="M 93.843464 163.645767 
L 86.156958 165.445037 
" style="fill:none;stroke:#000000;stroke-linecap:square;stroke-width:0.8;"/>
    </g>
    <g id="text_19">
     <!-- 4 -->
     <g transform="translate(71.778782 168.346594)scale(0.06 -0.06)">
      <use xlink:href="#DejaVuSans-34"/>
     </g>
    </g>
   </g>
  </g>
  <g id="axes_1">
   <g id="Path3DCollection_1">
    <defs>
     <path d="M 0 2.236068 
C 0.593012 2.236068 1.161816 2.000462 1.581139 1.581139 
C 2.000462 1.161816 2.236068 0.593012 2.236068 0 
C 2.236068 -0.593012 2.000462 -1.161816 1.581139 -1.581139 
C 1.161816 -2.000462 0.593012 -2.236068 0 -2.236068 
C -0.593012 -2.236068 -1.161816 -2.000462 -1.581139 -1.581139 
C -2.000462 -1.161816 -2.236068 -0.593012 -2.236068 0 
C -2.236068 0.593012 -2.000462 1.161816 -1.581139 1.581139 
C -1.161816 2.000462 -0.593012 2.236068 0 2.236068 
z
" id="C0_0_c3294577aa"/>
    </defs>
    <g clip-path="url(#pe152de99e8)">
     <use style="fill:#1f77b4;fill-opacity:0.3;stroke:#1f77b4;stroke-opacity:0.3;" x="111.27067" xlink:href="#C0_0_c3294577aa" y="515.059576"/>
    </g>
    <g clip-path="url(#pe152de99e8)">
     <use style="fill:#9edae5;fill-opacity:0.921894;stroke:#9edae5;stroke-opacity:0.921894;" x="490.912472" xlink:href="#C0_0_c3294577aa" y="371.08246"/>
    </g>
    <g clip-path="url(#pe152de99e8)">
     <use style="fill:#17becf;fill-opacity:0.796108;stroke:#17becf;stroke-opacity:0.796108;" x="485.392535" xlink:href="#C0_0_c3294577aa" y="461.222722"/>
    </g>
    <g clip-path="url(#pe152de99e8)">
     <use style="fill:#7f7f7f;fill-opacity:0.910487;stroke:#7f7f7f;stroke-opacity:0.910487;" x="245.244389" xlink:href="#C0_0_c3294577aa" y="269.010199"/>
    </g>
    <g clip-path="url(#pe152de99e8)">
     <use style="fill:#7f7f7f;fill-opacity:0.980892;stroke:#7f7f7f;stroke-opacity:0.980892;" x="223.952338" xlink:href="#C0_0_c3294577aa" y="274.359924"/>
    </g>
    <g clip-path="url(#pe152de99e8)">
     <use style="fill:#7f7f7f;fill-opacity:0.686051;stroke:#7f7f7f;stroke-opacity:0.686051;" x="286.548147" xlink:href="#C0_0_c3294577aa" y="251.956462"/>
    </g>
    <g clip-path="url(#pe152de99e8)">
     <use style="fill:#7f7f7f;fill-opacity:0.485918;stroke:#7f7f7f;stroke-opacity:0.485918;" x="288.331915" xlink:href="#C0_0_c3294577aa" y="236.749336"/>
    </g>
    <g clip-path="url(#pe152de99e8)">
     <use style="fill:#bcbd22;fill-opacity:0.369643;stroke:#bcbd22;stroke-opacity:0.369643;" x="488.472085" xlink:href="#C0_0_c3294577aa" y="521.603315"/>
    </g>
    <g clip-path="url(#pe152de99e8)">
     <use style="fill:#bcbd22;fill-opacity:0.466975;stroke:#bcbd22;stroke-opacity:0.466975;" x="595.737795" xlink:href="#C0_0_c3294577aa" y="530.748809"/>
    </g>
    <g clip-path="url(#pe152de99e8)">
     <use style="fill:#7f7f7f;fill-opacity:0.997114;stroke:#7f7f7f;stroke-opacity:0.997114;" x="241.014758" xlink:href="#C0_0_c3294577aa" y="275.592533"/>
    </g>
    <g clip-path="url(#pe152de99e8)">
     <use style="fill:#bcbd22;fill-opacity:0.367731;stroke:#bcbd22;stroke-opacity:0.367731;" x="495.253722" xlink:href="#C0_0_c3294577aa" y="521.423672"/>
    </g>
    <g clip-path="url(#pe152de99e8)">
     <use style="fill:#bcbd22;fill-opacity:0.3717;stroke:#bcbd22;stroke-opacity:0.3717;" x="605.294811" xlink:href="#C0_0_c3294577aa" y="521.796637"/>
    </g>
    <g clip-path="url(#pe152de99e8)">
     <use style="fill:#bcbd22;fill-opacity:0.458559;stroke:#bcbd22;stroke-opacity:0.458559;" x="598.056176" xlink:href="#C0_0_c3294577aa" y="529.957942"/>
    </g>
    <g clip-path="url(#pe152de99e8)">
     <use style="fill:#bcbd22;fill-opacity:0.710468;stroke:#bcbd22;stroke-opacity:0.710468;" x="569.228148" xlink:href="#C0_0_c3294577aa" y="553.62768"/>
    </g>
    <g clip-path="url(#pe152de99e8)">
     <use style="fill:#7f7f7f;fill-opacity:0.910487;stroke:#7f7f7f;stroke-opacity:0.910487;" x="245.244389" xlink:href="#C0_0_c3294577aa" y="269.010199"/>
    </g>
    <g clip-path="url(#pe152de99e8)">
     <use style="fill:#7f7f7f;fill-opacity:0.997114;stroke:#7f7f7f;stroke-opacity:0.997114;" x="241.014758" xlink:href="#C0_0_c3294577aa" y="275.592533"/>
    </g>
    <g clip-path="url(#pe152de99e8)">
     <use style="fill:#7f7f7f;fill-opacity:0.980892;stroke:#7f7f7f;stroke-opacity:0.980892;" x="223.952338" xlink:href="#C0_0_c3294577aa" y="274.359924"/>
    </g>
    <g clip-path="url(#pe152de99e8)">
     <use style="fill:#bcbd22;fill-opacity:0.372224;stroke:#bcbd22;stroke-opacity:0.372224;" x="494.692681" xlink:href="#C0_0_c3294577aa" y="521.845857"/>
    </g>
    <g clip-path="url(#pe152de99e8)">
     <use style="fill:#bcbd22;fill-opacity:0.367731;stroke:#bcbd22;stroke-opacity:0.367731;" x="495.253722" xlink:href="#C0_0_c3294577aa" y="521.423672"/>
    </g>
    <g clip-path="url(#pe152de99e8)">
     <use style="fill:#bcbd22;fill-opacity:0.369643;stroke:#bcbd22;stroke-opacity:0.369643;" x="488.472085" xlink:href="#C0_0_c3294577aa" y="521.603315"/>
    </g>
    <g clip-path="url(#pe152de99e8)">
     <use style="fill:#bcbd22;fill-opacity:0.710468;stroke:#bcbd22;stroke-opacity:0.710468;" x="569.228148" xlink:href="#C0_0_c3294577aa" y="553.62768"/>
    </g>
    <g clip-path="url(#pe152de99e8)">
     <use style="fill:#7f7f7f;fill-opacity:0.910487;stroke:#7f7f7f;stroke-opacity:0.910487;" x="245.244389" xlink:href="#C0_0_c3294577aa" y="269.010199"/>
    </g>
    <g clip-path="url(#pe152de99e8)">
     <use style="fill:#7f7f7f;fill-opacity:0.980892;stroke:#7f7f7f;stroke-opacity:0.980892;" x="223.952338" xlink:href="#C0_0_c3294577aa" y="274.359924"/>
    </g>
    <g clip-path="url(#pe152de99e8)">
     <use style="fill:#7f7f7f;fill-opacity:0.686051;stroke:#7f7f7f;stroke-opacity:0.686051;" x="286.548147" xlink:href="#C0_0_c3294577aa" y="251.956462"/>
    </g>
    <g clip-path="url(#pe152de99e8)">
     <use style="fill:#bcbd22;fill-opacity:0.369643;stroke:#bcbd22;stroke-opacity:0.369643;" x="488.472085" xlink:href="#C0_0_c3294577aa" y="521.603315"/>
    </g>
    <g clip-path="url(#pe152de99e8)">
     <use style="fill:#bcbd22;fill-opacity:0.466975;stroke:#bcbd22;stroke-opacity:0.466975;" x="595.737795" xlink:href="#C0_0_c3294577aa" y="530.748809"/>
    </g>
    <g clip-path="url(#pe152de99e8)">
     <use style="fill:#7f7f7f;fill-opacity:0.686051;stroke:#7f7f7f;stroke-opacity:0.686051;" x="286.548147" xlink:href="#C0_0_c3294577aa" y="251.956462"/>
    </g>
    <g clip-path="url(#pe152de99e8)">
     <use style="fill:#7f7f7f;fill-opacity:0.497038;stroke:#7f7f7f;stroke-opacity:0.497038;" x="301.374883" xlink:href="#C0_0_c3294577aa" y="237.594268"/>
    </g>
    <g clip-path="url(#pe152de99e8)">
     <use style="fill:#7f7f7f;fill-opacity:0.682688;stroke:#7f7f7f;stroke-opacity:0.682688;" x="291.326209" xlink:href="#C0_0_c3294577aa" y="251.700874"/>
    </g>
    <g clip-path="url(#pe152de99e8)">
     <use style="fill:#bcbd22;fill-opacity:0.616428;stroke:#bcbd22;stroke-opacity:0.616428;" x="578.060623" xlink:href="#C0_0_c3294577aa" y="544.791604"/>
    </g>
    <g clip-path="url(#pe152de99e8)">
     <use style="fill:#bcbd22;fill-opacity:0.665108;stroke:#bcbd22;stroke-opacity:0.665108;" x="574.63574" xlink:href="#C0_0_c3294577aa" y="549.365621"/>
    </g>
    <g clip-path="url(#pe152de99e8)">
     <use style="fill:#7f7f7f;fill-opacity:0.805111;stroke:#7f7f7f;stroke-opacity:0.805111;" x="248.150091" xlink:href="#C0_0_c3294577aa" y="261.003204"/>
    </g>
    <g clip-path="url(#pe152de99e8)">
     <use style="fill:#7f7f7f;fill-opacity:0.497038;stroke:#7f7f7f;stroke-opacity:0.497038;" x="301.374883" xlink:href="#C0_0_c3294577aa" y="237.594268"/>
    </g>
    <g clip-path="url(#pe152de99e8)">
     <use style="fill:#7f7f7f;fill-opacity:0.682688;stroke:#7f7f7f;stroke-opacity:0.682688;" x="291.326209" xlink:href="#C0_0_c3294577aa" y="251.700874"/>
    </g>
    <g clip-path="url(#pe152de99e8)">
     <use style="fill:#bcbd22;fill-opacity:0.321962;stroke:#bcbd22;stroke-opacity:0.321962;" x="496.643217" xlink:href="#C0_0_c3294577aa" y="517.123145"/>
    </g>
    <g clip-path="url(#pe152de99e8)">
     <use style="fill:#bcbd22;fill-opacity:0.665108;stroke:#bcbd22;stroke-opacity:0.665108;" x="574.63574" xlink:href="#C0_0_c3294577aa" y="549.365621"/>
    </g>
    <g clip-path="url(#pe152de99e8)">
     <use style="fill:#bcbd22;fill-opacity:0.616428;stroke:#bcbd22;stroke-opacity:0.616428;" x="578.060623" xlink:href="#C0_0_c3294577aa" y="544.791604"/>
    </g>
    <g clip-path="url(#pe152de99e8)">
     <use style="fill:#bcbd22;fill-opacity:0.625876;stroke:#bcbd22;stroke-opacity:0.625876;" x="577.975824" xlink:href="#C0_0_c3294577aa" y="545.679322"/>
    </g>
    <g clip-path="url(#pe152de99e8)">
     <use style="fill:#bcbd22;fill-opacity:0.321962;stroke:#bcbd22;stroke-opacity:0.321962;" x="496.643217" xlink:href="#C0_0_c3294577aa" y="517.123145"/>
    </g>
    <g clip-path="url(#pe152de99e8)">
     <use style="fill:#bcbd22;fill-opacity:0.625876;stroke:#bcbd22;stroke-opacity:0.625876;" x="577.975824" xlink:href="#C0_0_c3294577aa" y="545.679322"/>
    </g>
    <g clip-path="url(#pe152de99e8)">
     <use style="fill:#bcbd22;fill-opacity:0.697889;stroke:#bcbd22;stroke-opacity:0.697889;" x="570.727771" xlink:href="#C0_0_c3294577aa" y="552.44579"/>
    </g>
    <g clip-path="url(#pe152de99e8)">
     <use style="fill:#7f7f7f;fill-opacity:0.805111;stroke:#7f7f7f;stroke-opacity:0.805111;" x="248.150091" xlink:href="#C0_0_c3294577aa" y="261.003204"/>
    </g>
    <g clip-path="url(#pe152de99e8)">
     <use style="fill:#bcbd22;fill-opacity:0.697889;stroke:#bcbd22;stroke-opacity:0.697889;" x="570.727771" xlink:href="#C0_0_c3294577aa" y="552.44579"/>
    </g>
    <g clip-path="url(#pe152de99e8)">
     <use style="fill:#7f7f7f;stroke:#7f7f7f;" x="229.070879" xlink:href="#C0_0_c3294577aa" y="275.811823"/>
    </g>
    <g clip-path="url(#pe152de99e8)">
     <use style="fill:#7f7f7f;fill-opacity:0.997114;stroke:#7f7f7f;stroke-opacity:0.997114;" x="241.014758" xlink:href="#C0_0_c3294577aa" y="275.592533"/>
    </g>
    <g clip-path="url(#pe152de99e8)">
     <use style="fill:#7f7f7f;fill-opacity:0.805111;stroke:#7f7f7f;stroke-opacity:0.805111;" x="248.150091" xlink:href="#C0_0_c3294577aa" y="261.003204"/>
    </g>
    <g clip-path="url(#pe152de99e8)">
     <use style="fill:#7f7f7f;fill-opacity:0.699691;stroke:#7f7f7f;stroke-opacity:0.699691;" x="284.688483" xlink:href="#C0_0_c3294577aa" y="252.992828"/>
    </g>
    <g clip-path="url(#pe152de99e8)">
     <use style="fill:#bcbd22;fill-opacity:0.367731;stroke:#bcbd22;stroke-opacity:0.367731;" x="495.253722" xlink:href="#C0_0_c3294577aa" y="521.423672"/>
    </g>
    <g clip-path="url(#pe152de99e8)">
     <use style="fill:#bcbd22;fill-opacity:0.372224;stroke:#bcbd22;stroke-opacity:0.372224;" x="494.692681" xlink:href="#C0_0_c3294577aa" y="521.845857"/>
    </g>
    <g clip-path="url(#pe152de99e8)">
     <use style="fill:#bcbd22;fill-opacity:0.710468;stroke:#bcbd22;stroke-opacity:0.710468;" x="569.228148" xlink:href="#C0_0_c3294577aa" y="553.62768"/>
    </g>
    <g clip-path="url(#pe152de99e8)">
     <use style="fill:#7f7f7f;stroke:#7f7f7f;" x="229.070879" xlink:href="#C0_0_c3294577aa" y="275.811823"/>
    </g>
    <g clip-path="url(#pe152de99e8)">
     <use style="fill:#7f7f7f;fill-opacity:0.997114;stroke:#7f7f7f;stroke-opacity:0.997114;" x="241.014758" xlink:href="#C0_0_c3294577aa" y="275.592533"/>
    </g>
    <g clip-path="url(#pe152de99e8)">
     <use style="fill:#7f7f7f;fill-opacity:0.980892;stroke:#7f7f7f;stroke-opacity:0.980892;" x="223.952338" xlink:href="#C0_0_c3294577aa" y="274.359924"/>
    </g>
    <g clip-path="url(#pe152de99e8)">
     <use style="fill:#7f7f7f;fill-opacity:0.910487;stroke:#7f7f7f;stroke-opacity:0.910487;" x="245.244389" xlink:href="#C0_0_c3294577aa" y="269.010199"/>
    </g>
    <g clip-path="url(#pe152de99e8)">
     <use style="fill:#7f7f7f;fill-opacity:0.898499;stroke:#7f7f7f;stroke-opacity:0.898499;" x="231.570287" xlink:href="#C0_0_c3294577aa" y="268.09931"/>
    </g>
    <g clip-path="url(#pe152de99e8)">
     <use style="fill:#7f7f7f;fill-opacity:0.485918;stroke:#7f7f7f;stroke-opacity:0.485918;" x="288.331915" xlink:href="#C0_0_c3294577aa" y="236.749336"/>
    </g>
    <g clip-path="url(#pe152de99e8)">
     <use style="fill:#7f7f7f;fill-opacity:0.699691;stroke:#7f7f7f;stroke-opacity:0.699691;" x="284.688483" xlink:href="#C0_0_c3294577aa" y="252.992828"/>
    </g>
    <g clip-path="url(#pe152de99e8)">
     <use style="fill:#bcbd22;fill-opacity:0.367731;stroke:#bcbd22;stroke-opacity:0.367731;" x="495.253722" xlink:href="#C0_0_c3294577aa" y="521.423672"/>
    </g>
    <g clip-path="url(#pe152de99e8)">
     <use style="fill:#bcbd22;fill-opacity:0.372224;stroke:#bcbd22;stroke-opacity:0.372224;" x="494.692681" xlink:href="#C0_0_c3294577aa" y="521.845857"/>
    </g>
    <g clip-path="url(#pe152de99e8)">
     <use style="fill:#bcbd22;fill-opacity:0.369643;stroke:#bcbd22;stroke-opacity:0.369643;" x="488.472085" xlink:href="#C0_0_c3294577aa" y="521.603315"/>
    </g>
    <g clip-path="url(#pe152de99e8)">
     <use style="fill:#bcbd22;fill-opacity:0.466975;stroke:#bcbd22;stroke-opacity:0.466975;" x="595.737795" xlink:href="#C0_0_c3294577aa" y="530.748809"/>
    </g>
    <g clip-path="url(#pe152de99e8)">
     <use style="fill:#bcbd22;fill-opacity:0.710468;stroke:#bcbd22;stroke-opacity:0.710468;" x="569.228148" xlink:href="#C0_0_c3294577aa" y="553.62768"/>
    </g>
    <g clip-path="url(#pe152de99e8)">
     <use style="fill:#bcbd22;fill-opacity:0.687334;stroke:#bcbd22;stroke-opacity:0.687334;" x="524.719916" xlink:href="#C0_0_c3294577aa" y="551.453953"/>
    </g>
    <g clip-path="url(#pe152de99e8)">
     <use style="fill:#bcbd22;fill-opacity:0.678988;stroke:#bcbd22;stroke-opacity:0.678988;" x="514.938612" xlink:href="#C0_0_c3294577aa" y="550.669823"/>
    </g>
    <g clip-path="url(#pe152de99e8)">
     <use style="fill:#bcbd22;fill-opacity:0.687334;stroke:#bcbd22;stroke-opacity:0.687334;" x="524.719916" xlink:href="#C0_0_c3294577aa" y="551.453953"/>
    </g>
    <g clip-path="url(#pe152de99e8)">
     <use style="fill:#bcbd22;fill-opacity:0.710805;stroke:#bcbd22;stroke-opacity:0.710805;" x="522.703443" xlink:href="#C0_0_c3294577aa" y="553.659342"/>
    </g>
    <g clip-path="url(#pe152de99e8)">
     <use style="fill:#bcbd22;fill-opacity:0.670044;stroke:#bcbd22;stroke-opacity:0.670044;" x="504.456157" xlink:href="#C0_0_c3294577aa" y="549.82937"/>
    </g>
    <g clip-path="url(#pe152de99e8)">
     <use style="fill:#bcbd22;fill-opacity:0.642256;stroke:#bcbd22;stroke-opacity:0.642256;" x="498.843494" xlink:href="#C0_0_c3294577aa" y="547.21843"/>
    </g>
    <g clip-path="url(#pe152de99e8)">
     <use style="fill:#7f7f7f;fill-opacity:0.798165;stroke:#7f7f7f;stroke-opacity:0.798165;" x="377.197212" xlink:href="#C0_0_c3294577aa" y="260.475426"/>
    </g>
    <g clip-path="url(#pe152de99e8)">
     <use style="fill:#7f7f7f;fill-opacity:0.798165;stroke:#7f7f7f;stroke-opacity:0.798165;" x="377.197212" xlink:href="#C0_0_c3294577aa" y="260.475426"/>
    </g>
    <g clip-path="url(#pe152de99e8)">
     <use style="fill:#7f7f7f;fill-opacity:0.733294;stroke:#7f7f7f;stroke-opacity:0.733294;" x="303.140471" xlink:href="#C0_0_c3294577aa" y="255.546199"/>
    </g>
    <g clip-path="url(#pe152de99e8)">
     <use style="fill:#7f7f7f;fill-opacity:0.733294;stroke:#7f7f7f;stroke-opacity:0.733294;" x="303.140471" xlink:href="#C0_0_c3294577aa" y="255.546199"/>
    </g>
    <g clip-path="url(#pe152de99e8)">
     <use style="fill:#7f7f7f;fill-opacity:0.798165;stroke:#7f7f7f;stroke-opacity:0.798165;" x="377.197212" xlink:href="#C0_0_c3294577aa" y="260.475426"/>
    </g>
   </g>
  </g>
 </g>
 <defs>
  <clipPath id="pe152de99e8">
   <rect height="693.36" width="693.36" x="13.32" y="13.32"/>
  </clipPath>
 </defs>
</svg>
